<?xml version="1.0" encoding="UTF-8"?>
<svg id="Layer_1" xmlns="http://www.w3.org/2000/svg" version="1.1" viewBox="0 0 113 132">
  <!-- Generator: Adobe Illustrator 29.1.0, SVG Export Plug-In . SVG Version: 2.1.0 Build 142)  -->
  <defs>
    <style>
      .st0 {
        fill: #fff;
      }

      .st1 {
        fill: none;
        stroke: #000;
        stroke-linecap: round;
        stroke-linejoin: round;
        stroke-width: 1.3px;
      }
    </style>
  </defs>
  <path d="M43.1,6.2c-2.5-.7-2.9-5.7.6-6.4l29.7.3c11.3,9.5,33.3,29.2,33.3,29.2l.5,95.8s-2.6,4.1-4.6,5.2-4.2,1.5-6.4,1.5H17.3c-3.2,0-6.4-1-8.9-3.1s-2.6-4.2-2.6-4.2V6C6.4,2.6,9.4.4,12.6,0s8.4-.7,9.5,1.9c2.9,6.6-9.9,3.8-9.9,4.4v119.2h88.6V36.2h-26.4c-1.8,0-6.1-4.3-6.1-6.1V6.2h-25.2ZM97.6,29.8l-22.9-20.4v20.4h22.9Z"/>
  <path d="M65.6,91.2c4.7,4.7-6.6,7.3-9.7,7.5-30.8,1.9-42-38.2-16.1-51.8s47.2,10.1,38.5,34.1c-.6,1.6-3.6,6.2-3.6,6.5,0,1.1,13.6,13.7,15.1,16,1.7,2.5-1.5,6.1-4.1,4.1-2.4-3.9-17.1-15.3-18-18.3s3.8-7.7,5-11.3c5.5-16.2-9.3-32.1-25.5-27.4-25.4,7.2-18,45.1,9.8,41.7,2.6-.3,6.6-3,8.5-1.1Z"/>
  <path d="M52.6,72.1c1.2-1.5,4.5-2.8,5.3-5.3s-1.2-5.9-3.9-6.4c-6.1-1-7,4.9-7.7,5.1-2.8.6-3.3-.2-2.7-2.9.5-2.7,4.8-5.7,7.3-6,8.8-1.4,14.6,8,8.6,14.9-1.1,1.2-3.7,2.4-4.1,3.5s.2,4.7-1.3,5.1c-3.7,1-3.4-5.7-1.4-8.1Z"/>
  <path d="M37.6,5.5c-1.5,1.5-11.6,1.9-11.2-2.6S43.1,0,37.6,5.5Z"/>
  <circle cx="53" cy="84.5" r="2.7"/>
  <polygon class="st0" points="97.6 29.8 74.7 29.8 74.7 9.4 97.6 29.8"/>
  <path class="st1" d="M63.7,92.6c0,.4.1.8.2,1.3"/>
</svg>